# xmcd
#
# Track frame offsets: 
#        150
#        14939
#        32115
#        49687
#        68571
#        85087
#        110101
#        127352
#        144041
#        164551
#        181392
#
# Disc length: 2690 seconds
#
# Revision: 0
# Processed by: cddbd v1.5.2PL0 Copyright (c) Steve Scherf et al.
# Submitted via: ExactAudioCopy v0.99pb5
#
DISCID=9e0a800b
DTITLE=Carl Thomas - Conquer
DYEAR=1900
DGENRE=R&B
TTITLE0=01 the night is yours
TTITLE1=02 long distance love affair
TTITLE2=03 conquer
TTITLE3=04 round 2
TTITLE4=05 it's not the same
TTITLE5=06 don't kiss me
TTITLE6=07 it is what it is
TTITLE7=08 it ain't fair
TTITLE8=09 sweet love
TTITLE9=10 running
TTITLE10=11 don't kiss me remix w/ snoop dogg
EXTD=
EXTT0=
EXTT1=
EXTT2=
EXTT3=
EXTT4=
EXTT5=
EXTT6=
EXTT7=
EXTT8=
EXTT9=
EXTT10=
PLAYORDER=
